<svg width="64" height="64" viewBox="0 0 64 64" fill="none" xmlns="http://www.w3.org/2000/svg">
<path d="M6.99325 9.55372V13.8597H0V54.4465H64V13.8595H16.9956V9.55372H6.99325ZM42.2077 20.3737C49.8173 20.3737 55.9872 26.5425 55.9872 34.1531C55.9872 41.7633 49.8176 47.9331 42.2077 47.9331C34.597 47.9331 28.4288 41.7635 28.4288 34.1531C28.4288 26.5427 34.597 20.3737 42.2077 20.3737ZM36.083 34.1531C36.083 30.7706 38.8265 28.029 42.2077 28.029C45.5902 28.029 48.3329 30.7709 48.3329 34.1531C48.3329 37.5362 45.59 40.2778 42.2077 40.2778C38.8262 40.2778 36.083 37.5362 36.083 34.1531Z" fill="white"/>
</svg>
