<svg width="64" height="64" viewBox="0 0 64 64" fill="none" xmlns="http://www.w3.org/2000/svg">
<path d="M60.9007 4.3914H3.0993C1.3874 4.3914 0 5.77896 0 7.49071V43.7526C0 45.4643 1.3874 46.8519 3.0993 46.8519H24.7166V53.8749H16.3047C14.7239 53.8749 13.4378 55.1609 13.4378 56.7417C13.4378 58.3225 14.7239 59.6086 16.3047 59.6086H47.6953C49.2761 59.6086 50.5622 58.3225 50.5622 56.7417C50.5622 55.1609 49.2761 53.8749 47.6953 53.8749H39.2834V46.8519H60.9007C62.6126 46.8519 64 45.4643 64 43.7526V7.49071C64 5.77896 62.6126 4.3914 60.9007 4.3914ZM59.351 42.2029H4.64896V9.04036H59.351V42.2029Z" fill="white"/>
<path d="M14.6583 27.3726L24.4341 31.9186C24.6869 32.0356 24.9559 32.095 25.2341 32.095C25.5964 32.095 25.9494 31.9921 26.2564 31.7968C26.8062 31.4455 27.1344 30.8469 27.1344 30.1953V30.1454C27.1344 29.4091 26.7028 28.7329 26.0348 28.4223L19.9206 25.5818L26.0349 22.7407C26.7028 22.4301 27.1344 21.7537 27.1344 21.0178V20.9683C27.1344 20.3158 26.806 19.7171 26.2565 19.3669C25.9525 19.1726 25.5984 19.07 25.2328 19.07C24.9573 19.07 24.6807 19.1306 24.4332 19.2456L14.6582 23.791C13.9906 24.1017 13.5593 24.778 13.5593 25.5138V25.6498C13.5591 26.3847 13.9903 27.0608 14.6583 27.3726Z" fill="white"/>
<path d="M27.2215 36.6321C27.5781 37.1201 28.1516 37.4114 28.7558 37.4114H28.8046C29.634 37.4114 30.3608 36.8805 30.6134 36.0917L37.0533 16.1384C37.238 15.5624 37.1354 14.9269 36.7788 14.4378C36.4222 13.9498 35.8487 13.6583 35.2445 13.6583H35.1958C34.3662 13.6583 33.6388 14.1892 33.386 14.978L26.9453 34.933C26.7622 35.5095 26.8654 36.1444 27.2215 36.6321Z" fill="white"/>
<path d="M36.8656 21.0176C36.8656 21.7531 37.2967 22.4293 37.9651 22.7411L44.0792 25.5816L37.9651 28.4222C37.297 28.7327 36.8654 29.409 36.8654 30.1452V30.1951C36.8654 30.8467 37.1935 31.4454 37.7439 31.7968C38.0498 31.9918 38.4032 32.0948 38.7659 32.0948C39.0436 32.0948 39.3125 32.0355 39.5669 31.9179L49.3423 27.372C50.0097 27.0606 50.4409 26.3845 50.4409 25.6495V25.5135C50.4409 24.7777 50.0096 24.1014 49.3417 23.7907L39.5665 19.245C39.3199 19.1304 39.0438 19.0697 38.7681 19.0697C38.4027 19.0697 38.0484 19.1723 37.7447 19.366C37.194 19.7168 36.8656 20.3155 36.8656 20.968V21.0176Z" fill="white"/>
</svg>
